<svg width="1257" height="632" viewBox="0 0 1257 632" fill="none" xmlns="http://www.w3.org/2000/svg">
<mask id="path-1-inside-1_208_23" fill="white">
<path d="M0 50C0 22.3857 22.3858 0 50 0H1207C1234.61 0 1257 22.3858 1257 50V582C1257 609.614 1234.61 632 1207 632H50C22.3857 632 0 609.614 0 582V50Z"/>
</mask>
<path d="M0 50C0 22.3857 22.3858 0 50 0H1207C1234.61 0 1257 22.3858 1257 50V582C1257 609.614 1234.61 632 1207 632H50C22.3857 632 0 609.614 0 582V50Z" fill="white"/>
<path d="M0 0H1257H0ZM1257 632H0H1257ZM50 632C11.3401 632 -20 600.66 -20 562V70C-20 31.3401 11.3401 0 50 0C33.4315 0 20 22.3858 20 50V582C20 609.614 33.4315 632 50 632ZM1207 0C1245.66 0 1277 31.3401 1277 70V562C1277 600.66 1245.66 632 1207 632C1223.57 632 1237 609.614 1237 582V50C1237 22.3858 1223.57 0 1207 0Z" fill="#8E3D2C" fill-opacity="0.5" mask="url(#path-1-inside-1_208_23)"/>
</svg>
