<svg width="610" height="119" viewBox="0 0 610 119" fill="none" xmlns="http://www.w3.org/2000/svg">
<mask id="path-1-inside-1_208_862" fill="white">
<path d="M0 50C0 22.3858 22.3858 0 50 0H560C587.614 0 610 22.3858 610 50V69C610 96.6142 587.614 119 560 119H50C22.3858 119 0 96.6142 0 69V50Z"/>
</mask>
<path d="M0 50C0 22.3858 22.3858 0 50 0H560C587.614 0 610 22.3858 610 50V69C610 96.6142 587.614 119 560 119H50C22.3858 119 0 96.6142 0 69V50Z" fill="white"/>
<path d="M0 0H610H0ZM610 119H0H610ZM39.5 119C6.63906 119 -20 92.3609 -20 59.5C-20 26.6391 6.63906 0 39.5 0H50C33.4315 0 20 22.3858 20 50V69C20 96.6142 33.4315 119 50 119H39.5ZM570.5 0C603.361 0 630 26.6391 630 59.5C630 92.3609 603.361 119 570.5 119H560C576.569 119 590 96.6142 590 69V50C590 22.3858 576.569 0 560 0H570.5Z" fill="#8E3D2C" fill-opacity="0.5" mask="url(#path-1-inside-1_208_862)"/>
</svg>
