<svg width="610" height="395" viewBox="0 0 610 395" fill="none" xmlns="http://www.w3.org/2000/svg">
<mask id="path-1-inside-1_208_874" fill="white">
<path d="M0 50C0 22.3858 22.3858 0 50 0H560C587.614 0 610 22.3858 610 50V345C610 372.614 587.614 395 560 395H50C22.3858 395 0 372.614 0 345V50Z"/>
</mask>
<path d="M0 50C0 22.3858 22.3858 0 50 0H560C587.614 0 610 22.3858 610 50V345C610 372.614 587.614 395 560 395H50C22.3858 395 0 372.614 0 345V50Z" fill="white"/>
<path d="M0 0H610H0ZM610 395H0H610ZM50 395C11.3401 395 -20 363.66 -20 325V70C-20 31.3401 11.3401 0 50 0C33.4315 0 20 22.3858 20 50V345C20 372.614 33.4315 395 50 395ZM560 0C598.66 0 630 31.3401 630 70V325C630 363.66 598.66 395 560 395C576.569 395 590 372.614 590 345V50C590 22.3858 576.569 0 560 0Z" fill="#8E3D2C" fill-opacity="0.5" mask="url(#path-1-inside-1_208_874)"/>
</svg>
