<svg width="79" height="60" viewBox="0 0 79 60" fill="none" xmlns="http://www.w3.org/2000/svg">
<ellipse cx="31.4226" cy="33.6844" rx="26.1856" ry="26.3158" fill="#8E4130"/>
<path d="M56.6082 33.6844C56.6082 47.6707 45.3276 59.0002 31.4226 59.0002C17.5177 59.0002 6.23706 47.6707 6.23706 33.6844C6.23706 19.6982 17.5177 8.36865 31.4226 8.36865C45.3276 8.36865 56.6082 19.6982 56.6082 33.6844Z" stroke="#8E3D2C" stroke-opacity="0.7" stroke-width="2"/>
<ellipse cx="15.1876" cy="15.2632" rx="15.1876" ry="15.2632" fill="#FDEBDF"/>
<path d="M29.3753 15.2632C29.3753 23.1452 23.0186 29.5263 15.1876 29.5263C7.35669 29.5263 1 23.1452 1 15.2632C1 7.38115 7.35669 1 15.1876 1C23.0186 1 29.3753 7.38115 29.3753 15.2632Z" stroke="#8E3D2C" stroke-opacity="0.7" stroke-width="2"/>
<ellipse cx="56.5608" cy="37.8948" rx="21.9959" ry="22.1053" fill="#A86253"/>
<path d="M77.5567 37.8948C77.5567 49.5556 68.1519 59.0001 56.5608 59.0001C44.9698 59.0001 35.5649 49.5556 35.5649 37.8948C35.5649 26.234 44.9698 16.7896 56.5608 16.7896C68.1519 16.7896 77.5567 26.234 77.5567 37.8948Z" stroke="#8E3D2C" stroke-opacity="0.7" stroke-width="2"/>
</svg>
